<?xml version="1.0" encoding="utf-8"?>
<!-- Generator: Adobe Illustrator 25.0.1, SVG Export Plug-In . SVG Version: 6.00 Build 0)  -->
<svg version="1.0" id="katman_1" xmlns="http://www.w3.org/2000/svg" xmlns:xlink="http://www.w3.org/1999/xlink" width="1em" height="1em"
	 viewBox="0 0 560 400" style="enable-background:new 0 0 560 400;" xml:space="preserve">
<style type="text/css">
	.st0{fill:#FFFFFF;}
	.st1{fill:#981E32;}
</style>
<g transform="matrix(2.13327 0 0 2.13327 142.669 68.1241)">
	<path class="st0" d="M82.8-13.2L82.7-13c0,0-7.5,21.4-7.6,21.7c-30.1,6.7-42.2,20.6-46.8,25.9L28,34.9
		c-6.8,7.8-11.3,17.7-13.9,24.7c-11.4,30.8-14,33.6-26.3,47.4l-1.6,1.8l0.8-0.1c0.2,0,17.2-3.2,24.7-5.2c-0.8,5.8-2.4,14.3-7.8,22.6
		l-4.1,6.2l0.7-0.1c7.7-1.7,17.5-1.6,17.6-1.6c15.3,0.4,30,2.6,39.7,4.1c29,3.9,42.9,1.6,43.1,1.5l0.2,0l0-0.2
		c0.2-1.5,0.4-3.3,0.4-5.1c0-6-1.5-13.2-5.7-18.8c-0.2-3.5-0.5-6.9-1.7-12.7c1.9,4.4,4.1,6.7,7.4,9.5c3.6,3,8.1,4.2,13,3.5
		c6-0.8,11.7-4.7,13.8-9.4c7.3-16.1-1.1-38.1-7.6-45.4l-0.7-0.7l0.2,1c0.7,3.7,0.9,19.9-3,24.8c-1.5,1.9-3.7,3-6.2,3.2
		C98.5,86.4,90.4,64.6,89,57c-0.6-3.1-0.6-12.3,6-17.1c4.5-3.2,8.8-3.5,14.9-0.9c2.4,2.1,7.8,12.7,8.9,15.9c3.8-6.6,3.8-14.8,2.3-22
		c0.4-1.5,0.7-3,0.9-4.6c0.4,0,20.6-0.8,20.6-0.8l-0.1-7.6c0,0-5.6-0.2-8.7-0.3c2.9-0.5,8-1.4,8-1.4l-1-7.1c0,0-6.4,0.7-9.2,1
		c2.4-0.9,7.7-3,7.7-3l-2.5-6.8l-0.2,0.1c-0.2,0-16.7,4.9-20.2,5.9c-1.1-1.4-2.6-3.2-4.2-3.9l-0.1,0l-0.1,0c-0.1,0-12.6,1-17.8,1.6
		c0.1-0.7,4-19.2,4-19.2l-7.4,0l-2.4,7.4l1.6-7.4L82.8-13.2L82.8-13.2z"/>
	<path class="st1" d="M84.9-10.2L77.7,12c-0.1,0-0.2,0-0.2,0.1c-4.4,1.4-8.4,4.4-11.3,8.6c-3.7,5.2-7.4,14.8-4.3,30.5
		c0.5,2.6,1.4,6.4,2.3,10.4c1.9,8,4,17.1,4.7,22.9c1.7,13.3,0.1,21.9-4.8,27.1c-4,4.2-10.2,5.8-19,5.1l-2.2-0.2l0.2-2.2
		c0.1-1.6,0.2-3.1,0.2-4.6c0-3-0.2-5.7-0.5-7.9c-4.9,8-13.6,19.3-24.8,25.8c19,0.5,37.4,3.8,45.6,4.9c0.8,0.1,1.6,0.2,2.4,0.2
		c0.2,0,0.4,0,0.6,0c0.1,0,0.1,0,0.2,0c1.9,0,3.7-0.1,5.5-0.3c0.1,0,0.1,0,0.2,0c0.2,0,0.5-0.1,0.7-0.1c10.6-1.8,19.7-9.6,17.2-27.7
		c-2.9-21.5-6.7-35.2-7.6-45.6c-1.2-12.6,9.7-32.1,29.1-23.4c0,0,2.7,2.3,6.2,10.5c0,0,1.4-4.7-0.6-13.3c0.8-2.4,1.1-4.9,1.1-7.4
		l21.1-0.9l0-2.3l-21.4-0.7c-0.1-0.4-0.1-0.8-0.2-1.2l20.6-4.1l-0.3-2.3l-21.2,2.6c-0.1-0.4-0.3-0.8-0.4-1.2l19.4-7.5l-0.8-2.2
		l-20.3,6.3c-1.2-2-2.5-3.5-3.8-4c-7.7,0.6-14.7,1.2-21.2,2l4.1-19H92l-6.2,19.6c-1.2,0.2-2.3,0.4-3.4,0.6l4.8-21.3L84.9-10.2z
		 M64.8,15.4C52.4,19.5,42.1,26,31.4,36.7l7.5,8.7l3.1-2.9c2.9,10.8,0.8,20.8,0.8,20.8c-4-6-8.6-10.9-8.6-10.9l2.1-3.4l-6.8-7.9
		l-0.8-0.9c-8.3,11.4-11,20.8-11,20.8l5.9,5.4l3.4,3.1l1.2-3.3c6.4,11.9,0.5,23,0.5,23c-1-4.1-5.2-10.1-5.2-10.1l1.7-5.5l-8.8-8
		C7.2,94.4-5.1,103.7-5.1,103.7s13.2-2.4,20.6-4.9c0,0-0.2,15.1-9.2,28.8h0c17.9-4.1,31.5-24.9,35.5-33.3l2.5-5.3l1.5,5.7
		c0.1,0.3,1.7,6.6,1.7,14.8c0,0.9,0,1.9-0.1,2.8c6.2,0.2,10.6-1,13.3-3.9c3.9-4.1,5.1-11.8,3.6-23.5c-0.7-5.6-2.8-14.6-4.6-22.5
		c-0.9-4-1.8-7.9-2.4-10.6c-3.4-17.3,0.8-28,5-33.9C63.3,17.1,64,16.2,64.8,15.4L64.8,15.4z M122.7,64.1c0,0,4.5,24.4-11.3,25.2
		c-15.3,0.8-22.5-22.2-22.5-22.2s3.7,44.9,25.1,42C138.1,105.7,122.7,64.1,122.7,64.1z M94.7,118.2c-4,12.1-11.3,15.3-11.3,15.3
		s10.7,0.5,14-0.3C97.3,133.2,98.2,125.6,94.7,118.2L94.7,118.2z"/>
	<path class="st0" d="M88.9,26.3c-4.6,0.1-9.4,1.1-11.8,2.7c-6.7,4.6-5.6,12.7-5.4,12.9c1.3-2.3,3.6-5.6,6.9-8
		c4.3-3,11.5-5.3,18.3-4.8c1.7,0.1,3.2-0.3,1.3-1.3C96.1,26.7,92.6,26.3,88.9,26.3L88.9,26.3z"/>
</g>
</svg>
